<?xml version="1.0" encoding="UTF-8" standalone="no"?>
<svg
   version="1.0"
   width="512px"
   height="512px"
   viewBox="0 0 512 512"
   preserveAspectRatio="xMidYMid meet"
   id="svg3"
   sodipodi:docname="instagram.svg"
   inkscape:version="1.3 (0e150ed6c4, 2023-07-21)"
   xmlns:inkscape="http://www.inkscape.org/namespaces/inkscape"
   xmlns:sodipodi="http://sodipodi.sourceforge.net/DTD/sodipodi-0.dtd"
   xmlns="http://www.w3.org/2000/svg"
   xmlns:svg="http://www.w3.org/2000/svg">
  <defs
     id="defs3" />
  <sodipodi:namedview
     id="namedview3"
     pagecolor="#505050"
     bordercolor="#eeeeee"
     borderopacity="1"
     inkscape:showpageshadow="0"
     inkscape:pageopacity="0"
     inkscape:pagecheckerboard="0"
     inkscape:deskcolor="#505050"
     inkscape:zoom="1.5878906"
     inkscape:cx="256"
     inkscape:cy="256"
     inkscape:window-width="1920"
     inkscape:window-height="1009"
     inkscape:window-x="-8"
     inkscape:window-y="-8"
     inkscape:window-maximized="1"
     inkscape:current-layer="svg3" />
  <g
     fill="#000000"
     id="g3"
     style="fill:#ffffff">
    <path
       d="M31.3 510.9 c-7.7 -1.3 -14.1 -4.7 -19.8 -10.4 -6.1 -6 -9.1 -12.1 -10.5 -21.2 -0.7 -4.6 -1 -78.1 -0.8 -227.8 0.3 -211.2 0.4 -221.2 2.1 -226 3.9 -10.8 13 -19.7 23.7 -23.2 5.2 -1.7 16 -1.8 230 -1.8 214 0 224.8 0.1 230 1.8 11 3.6 20.1 12.7 23.7 23.7 1.7 5.2 1.8 16 1.8 230 0 214 -0.1 224.8 -1.8 230 -3.5 10.7 -12.4 19.8 -23.2 23.7 -4.8 1.7 -14.7 1.8 -227.5 1.9 -124.4 0.1 -224.8 -0.2 -227.7 -0.7z m292.8 -109 c24.2 -2.4 40.5 -9.4 54.4 -23.4 14 -13.9 21 -30.2 23.4 -54.4 1.4 -13.6 1.4 -122.6 0 -136.2 -1.8 -18.1 -6.2 -31.6 -14 -43.3 -13.7 -20.5 -34.1 -31.5 -63.8 -34.5 -13.6 -1.4 -122.6 -1.4 -136.2 0 -40.9 4.1 -66.1 24.7 -75.3 61.4 -3 11.8 -3.6 26.9 -3.6 84.5 0 57.6 0.6 72.7 3.6 84.5 9 35.9 34.6 57.3 73.5 61.4 12.2 1.2 125.6 1.3 138 0z"
       id="path1"
       style="fill:#ffffff" />
    <path
       d="M194.4 375 c-12.7 -0.9 -19 -2.4 -28.2 -6.6 -13.2 -6 -23.3 -18.9 -27.1 -34.8 -2.2 -9.1 -3 -30 -3 -77.6 0 -47.6 0.8 -68.5 3 -77.6 4.9 -20.2 19.1 -34.4 39.3 -39.3 9.1 -2.2 30 -3 77.6 -3 47.6 0 68.5 0.8 77.6 3 19.9 4.8 33.6 18.2 39 38.1 2.8 10.3 3.6 35 3.1 90.3 -0.3 45.8 -0.7 55.3 -2.1 62.5 -3.7 18.3 -13.2 31.4 -27.6 38.2 -9.7 4.6 -14.5 5.7 -29.9 6.8 -14.5 1.1 -106.6 1.1 -121.7 0z m81.1 -45.6 c26.6 -7.2 46.7 -27.4 54.1 -54.5 2.5 -8.9 2.5 -28.9 0 -37.8 -7.5 -27.3 -27.4 -47.2 -54.7 -54.7 -8.9 -2.5 -28.9 -2.5 -37.8 0 -27.3 7.5 -47.2 27.4 -54.7 54.7 -2.5 8.9 -2.5 28.9 0 37.8 8.3 30.3 32 51.4 63.1 56.5 5.5 0.8 23.9 -0.3 30 -2z m63.7 -134.4 c8 -2.2 13.1 -9.1 13.1 -17.5 0 -10.5 -7.3 -17.8 -17.8 -17.8 -20.3 0 -25 28 -5.8 34.8 4.7 1.7 5.8 1.8 10.5 0.5z"
       id="path2"
       style="fill:#ffffff" />
    <path
       d="M242.5 302.6 c-13.6 -4.4 -24.3 -13.7 -30.3 -26.3 -3.7 -7.7 -3.7 -7.9 -3.7 -20.3 0 -12.4 0 -12.6 3.7 -20.3 5 -10.4 13 -18.5 23 -23.2 24.4 -11.6 52.9 -1.3 64.6 23.2 3.7 7.7 3.7 7.9 3.7 20.3 0 12.4 0 12.6 -3.7 20.3 -5.1 10.5 -13 18.5 -23.5 23.5 -7.4 3.5 -8.4 3.7 -18.8 3.9 -7.1 0.2 -12.4 -0.2 -15 -1.1z"
       id="path3"
       style="fill:#ffffff" />
  </g>
</svg>
